<?xml version="1.0" encoding="utf-8"?><svg xmlns="http://www.w3.org/2000/svg" xmlns:xlink="http://www.w3.org/1999/xlink"><symbol id="100days" viewBox="0 0 127.6 126.8" xml:space="preserve" xmlns="http://www.w3.org/2000/svg"><style>.aast0{fill:#005eff}</style><path class="aast0" d="M126.6 22.3c0-6.5-5.2-11.8-11.7-11.8h-12.3V4.8c0-2.2-1.7-3.9-3.9-3.9s-3.9 1.8-3.9 3.9v5.7H33.7V4.8c0-2.2-1.7-3.9-3.9-3.9-2.1 0-3.9 1.8-3.9 3.9v5.7H13.7C7.3 10.5 2 15.8 2 22.3v17.9c0 .2.1.4.1.6 0 .2-.1.4-.1.6v72.2c0 6.5 5.2 11.8 11.7 11.8h101.2c6.4 0 11.7-5.3 11.7-11.8V41.5c0-.2-.1-.4-.1-.6 0-.2.1-.4.1-.6v-18zm-7.8 91.4c0 2.2-1.7 3.9-3.9 3.9H13.7c-2.1 0-3.9-1.8-3.9-3.9V45.4h108.9v68.3h.1zm0-76.2H9.8V22.3c0-2.2 1.7-3.9 3.9-3.9h12.2v5.7c0 2.2 1.7 3.9 3.9 3.9 2.1 0 3.9-1.7 3.9-3.9v-5.7h61.1v5.7c0 2.2 1.7 3.9 3.9 3.9 2.1 0 3.9-1.8 3.9-3.9v-5.7h12.3c2.1 0 3.9 1.8 3.9 3.9v15.2z"/><path class="aast0" d="M47.2 66.8c0 2.2-1.7 3.9-3.9 3.9-2.1 0-3.9-1.8-3.9-3.9 0-2.2 1.7-3.9 3.9-3.9 2.1-.1 3.9 1.7 3.9 3.9zm18.8 0c0 2.2-1.7 3.9-3.9 3.9-2.1 0-3.9-1.8-3.9-3.9 0-2.2 1.7-3.9 3.9-3.9 2.1-.1 3.9 1.7 3.9 3.9zm21 0c0 2.2-1.7 3.9-3.9 3.9-2.1 0-3.9-1.8-3.9-3.9 0-2.2 1.7-3.9 3.9-3.9 2.2-.1 3.9 1.7 3.9 3.9zm21.5 0c0 2.2-1.7 3.9-3.9 3.9-2.1 0-3.9-1.8-3.9-3.9 0-2.2 1.7-3.9 3.9-3.9 2.1-.1 3.9 1.7 3.9 3.9zM27.9 80.3c0 2.2-1.7 3.9-3.9 3.9-2.1 0-3.9-1.8-3.9-3.9 0-2.2 1.7-3.9 3.9-3.9s3.9 1.8 3.9 3.9zm19.3 0c0 2.2-1.7 3.9-3.9 3.9-2.1 0-3.9-1.8-3.9-3.9 0-2.2 1.7-3.9 3.9-3.9 2.1 0 3.9 1.8 3.9 3.9zm18.8 0c0 2.2-1.7 3.9-3.9 3.9-2.1 0-3.9-1.8-3.9-3.9 0-2.2 1.7-3.9 3.9-3.9 2.1 0 3.9 1.8 3.9 3.9zm21 0c0 2.2-1.7 3.9-3.9 3.9-2.1 0-3.9-1.8-3.9-3.9 0-2.2 1.7-3.9 3.9-3.9s3.9 1.8 3.9 3.9zm21.5 0c0 2.2-1.7 3.9-3.9 3.9-2.1 0-3.9-1.8-3.9-3.9 0-2.2 1.7-3.9 3.9-3.9 2.1 0 3.9 1.8 3.9 3.9zM27.9 93.8c0 2.2-1.7 3.9-3.9 3.9-2.1 0-3.9-1.8-3.9-3.9 0-2.2 1.7-3.9 3.9-3.9s3.9 1.8 3.9 3.9zm19.3 0c0 2.2-1.7 3.9-3.9 3.9-2.1 0-3.9-1.8-3.9-3.9 0-2.2 1.7-3.9 3.9-3.9 2.1 0 3.9 1.8 3.9 3.9zm18.8 0c0 2.2-1.7 3.9-3.9 3.9-2.1 0-3.9-1.8-3.9-3.9 0-2.2 1.7-3.9 3.9-3.9 2.1 0 3.9 1.8 3.9 3.9zm21 0c0 2.2-1.7 3.9-3.9 3.9-2.1 0-3.9-1.8-3.9-3.9 0-2.2 1.7-3.9 3.9-3.9s3.9 1.8 3.9 3.9zm21.5 0c0 2.2-1.7 3.9-3.9 3.9-2.1 0-3.9-1.8-3.9-3.9 0-2.2 1.7-3.9 3.9-3.9 2.1 0 3.9 1.8 3.9 3.9zm-80.6 13.6c0 2.2-1.7 3.9-3.9 3.9-2.1 0-3.9-1.7-3.9-3.9s1.7-3.9 3.9-3.9 3.9 1.8 3.9 3.9zm19.3 0c0 2.2-1.7 3.9-3.9 3.9-2.1 0-3.9-1.7-3.9-3.9s1.7-3.9 3.9-3.9c2.1 0 3.9 1.8 3.9 3.9zm18.8 0c0 2.2-1.7 3.9-3.9 3.9-2.1 0-3.9-1.7-3.9-3.9s1.7-3.9 3.9-3.9c2.1 0 3.9 1.8 3.9 3.9z"/></symbol><symbol id="2zones" viewBox="0 0 150 71.6" xml:space="preserve" xmlns="http://www.w3.org/2000/svg"><style/><path d="M125.9 72.1H26.4c-9 0-16.3-7.3-16.3-16.3v-3.7c0-9 7.3-16.3 16.3-16.3H32c1.5 0 2.8 1.1 3 2.6.9 5.9 5.8 10.2 11.7 10.2s10.9-4.3 11.7-10.2c.2-1.5 1.5-2.6 3-2.6H82c.8 0 1.6.3 2.2.9s.9 1.4.9 2.2v.5c0 8.4 7.1 15.4 15.8 15.4s15.8-7.1 15.8-15.8c0-.8.3-1.7.9-2.3.6-.6 1.4-1 2.2-1h6.3c9 0 16.3 7.3 16.3 16.3v3.8c-.2 9-7.5 16.3-16.5 16.3zM26.4 41.9c-5.6 0-10.2 4.6-10.2 10.2v3.7c0 5.6 4.6 10.2 10.2 10.2h99.5c5.6 0 10.2-4.6 10.2-10.2v-3.7c0-5.6-4.6-10.2-10.2-10.2h-3.4C121 52.8 111.8 61 100.8 61c-11.1 0-20.3-8.3-21.7-19.1H64c-2.3 7.5-9.1 12.8-17.2 12.8s-14.9-5.2-17.2-12.8h-3.2z"/><path d="M99.2 8v27.6L92.6 29c-.6-.6-1.5-.6-2.1 0s-.6 1.5 0 2.1l9.1 9.1c.6.6 1.5.6 2.1 0l9.1-9.1c.3-.3.4-.7.4-1s-.1-.8-.4-1c-.6-.6-1.5-.6-2.1 0l-6.6 6.6V8c0-.8-.7-1.5-1.5-1.5-.8.1-1.4.7-1.4 1.5z"/><path d="M100.6 41.7c-.6 0-1.2-.3-1.7-.7l-9.1-9.2c-.9-.9-.9-2.5 0-3.4.5-.5 1.1-.7 1.7-.7.6 0 1.2.3 1.7.7l5 5V8c0-1.3 1.1-2.4 2.4-2.4S103 6.7 103 8v25.4l5-5c.9-.9 2.5-.9 3.4 0 .5.5.7 1.1.7 1.7s-.3 1.3-.7 1.7l-9.1 9.1c-.4.5-1 .8-1.7.8zm-9.1-12.1c-.1 0-.3.1-.4.2-.2.2-.2.6 0 .8l9.1 9.1c.1.1.2.2.4.2.1 0 .3-.1.4-.2l9.1-9.1c.1-.1.2-.2.2-.4 0-.1-.1-.3-.2-.4-.2-.2-.6-.2-.8 0l-8.2 8.2V8c0-.6-1.1-.6-1.1 0v29.9l-8.2-8.2c0-.1-.1-.1-.3-.1zM44.9 3.9v27.6l-6.6-6.6c-.6-.6-1.5-.6-2.1 0s-.6 1.5 0 2.1l9.1 9.1c.6.6 1.5.6 2.1 0l9.1-9.1c.3-.3.4-.7.4-1 0-.4-.1-.8-.4-1-.6-.6-1.5-.6-2.1 0l-6.6 6.6V3.9c0-.8-.7-1.5-1.5-1.5-.7 0-1.4.6-1.4 1.5z"/><path d="M46.4 37.5c-.6 0-1.2-.2-1.7-.7l-9.1-9.1c-.9-.9-.9-2.5 0-3.4s2.5-.9 3.4 0l5 5V3.9c0-1.3 1.1-2.4 2.4-2.4 1.3 0 2.4 1.1 2.4 2.4v25.4l5-5c.9-.9 2.5-.9 3.4 0 .5.5.7 1.1.7 1.7s-.3 1.3-.7 1.7l-9.1 9.1c-.4.4-1.1.7-1.7.7zm-9.1-12.1c-.1 0-.3.1-.4.2-.2.2-.2.6 0 .8l9.1 9.1c.2.2.6.2.8 0l9.1-9.1c.1-.1.2-.2.2-.4s-.1-.3-.2-.4c-.2-.2-.6-.2-.8 0L47 33.7V3.9c0-.6-1.1-.6-1.1 0v29.9l-8.2-8.2c-.1-.1-.3-.2-.4-.2z"/></symbol><symbol id="Hypoallergenic" viewBox="0 0 124.2 83.3" xml:space="preserve" xmlns="http://www.w3.org/2000/svg"><style/><path d="M62.2 41.2c-5.3 0-9.7 4.3-9.7 9.7s4.3 9.7 9.7 9.7c5.3 0 9.6-4.3 9.6-9.7 0-2.5-.9-4.9-2.7-6.7-1.8-1.9-4.3-3-6.9-3zm0 14.1c-2.4 0-4.4-2-4.4-4.4s2-4.3 4.4-4.3 4.3 2 4.3 4.3-1.9 4.4-4.3 4.4zM37.1 9.9z"/><path d="M.8 50.9c0 .8.3 1.5.9 2.1 1.4 1.3 33 30.1 60.6 30.1s59.3-28.9 60.6-30.1c.5-.5.9-1.3.9-2 0-.8-.3-1.5-.8-1.9C121.7 47.9 90 19 62.4 19c-2.8 0-6.1.4-9.5 1.1l-1.2.2-.5-1.2c-2.4-5-5.9-10.9-10.5-17.6C40.2.8 39.3.3 38.5.3c-.8 0-1.7.5-2.2 1.2-3.6 4.7-14.4 21.1-14.4 28.7 0 .7.1 1.4.2 2.2l.2.9-.8.6c-11.7 7.4-19.7 15-19.8 15-.7.6-.9 1.3-.9 2zm89.7-18.3c12.4 6.6 22.4 14.7 25.1 17.1l1.4 1.2-1.4 1.2c-8.4 7-17.1 12.9-25.1 17.1l-5 2.7 2.9-4.8c3-4.8 4.6-10.4 4.6-16.1 0-5.5-1.6-11.1-4.6-16.1l-2.9-4.8 5 2.5zm-36-2.4c0-.4-.1-.9-.1-1.4l-.2-1.8 1.3-.4c2.2-.6 4.4-.9 6.7-.9 14 0 25.3 11.4 25.3 25.3 0 14-11.4 25.4-25.3 25.4S36.8 65 36.8 51c0-1 .1-1.8.2-2.7l.1-1.7h1.4c8.8-.2 16-7.6 16-16.4zM36.8 9.8l1.3-2.1 1.3 2.1c2.3 3.6 9.7 15.8 9.7 20.5 0 6-4.9 10.9-11 10.9-6 0-10.9-4.9-10.9-10.9-.1-3.8 5-13.1 9.6-20.5zM9.1 49.5c3.1-2.5 7.8-6.3 13.6-10.1l1.2-.8.8 1.2c1.5 2.1 3.5 3.8 6 5.1l1 .6-.2 1.1c-.2 1.4-.3 2.9-.3 4.4 0 5.7 1.6 11.4 4.6 16.1l2.9 4.9-5-2.7C21.4 62.7 11.4 54.6 8.6 52.2l-1.2-1.4 1.7-1.3z"/></symbol><symbol id="advantages_1" viewBox="0 0 150 150" xml:space="preserve" xmlns="http://www.w3.org/2000/svg"><style/><path d="M137.3 34.1c0-6.5-5.2-11.8-11.7-11.8h-12.3v-5.7c0-2.2-1.7-3.9-3.9-3.9s-3.9 1.8-3.9 3.9v5.7H44.4v-5.7c0-2.2-1.7-3.9-3.9-3.9-2.1 0-3.9 1.8-3.9 3.9v5.7H24.4c-6.4 0-11.7 5.3-11.7 11.8V52c0 .2.1.4.1.6 0 .2-.1.4-.1.6v72.2c0 6.5 5.2 11.8 11.7 11.8h101.2c6.4 0 11.7-5.3 11.7-11.8V53.3c0-.2-.1-.4-.1-.6 0-.2.1-.4.1-.6v-18zm-7.8 91.4c0 2.2-1.7 3.9-3.9 3.9H24.4c-2.1 0-3.9-1.8-3.9-3.9V57.2h108.9v68.3zm0-76.2h-109V34.1c0-2.2 1.7-3.9 3.9-3.9h12.2v5.7c0 2.2 1.7 3.9 3.9 3.9 2.1 0 3.9-1.7 3.9-3.9v-5.7h61.1v5.7c0 2.2 1.7 3.9 3.9 3.9 2.1 0 3.9-1.8 3.9-3.9v-5.7h12.3c2.1 0 3.9 1.8 3.9 3.9v15.2zm0 0"/><path d="M57.9 78.6c0 2.2-1.7 3.9-3.9 3.9-2.1 0-3.9-1.8-3.9-3.9 0-2.2 1.7-3.9 3.9-3.9 2.1-.1 3.9 1.7 3.9 3.9zm18.8 0c0 2.2-1.7 3.9-3.9 3.9-2.1 0-3.9-1.8-3.9-3.9 0-2.2 1.7-3.9 3.9-3.9 2.1-.1 3.9 1.7 3.9 3.9zm21 0c0 2.2-1.7 3.9-3.9 3.9-2.1 0-3.9-1.8-3.9-3.9 0-2.2 1.7-3.9 3.9-3.9 2.2-.1 3.9 1.7 3.9 3.9zm21.5 0c0 2.2-1.7 3.9-3.9 3.9-2.1 0-3.9-1.8-3.9-3.9 0-2.2 1.7-3.9 3.9-3.9 2.1-.1 3.9 1.7 3.9 3.9zM38.6 92.1c0 2.2-1.7 3.9-3.9 3.9-2.1 0-3.9-1.8-3.9-3.9 0-2.2 1.7-3.9 3.9-3.9s3.9 1.8 3.9 3.9zm19.3 0c0 2.2-1.7 3.9-3.9 3.9-2.1 0-3.9-1.8-3.9-3.9 0-2.2 1.7-3.9 3.9-3.9 2.1 0 3.9 1.8 3.9 3.9zm18.8 0c0 2.2-1.7 3.9-3.9 3.9-2.1 0-3.9-1.8-3.9-3.9 0-2.2 1.7-3.9 3.9-3.9 2.1 0 3.9 1.8 3.9 3.9zm21 0c0 2.2-1.7 3.9-3.9 3.9-2.1 0-3.9-1.8-3.9-3.9 0-2.2 1.7-3.9 3.9-3.9s3.9 1.8 3.9 3.9zm21.5 0c0 2.2-1.7 3.9-3.9 3.9-2.1 0-3.9-1.8-3.9-3.9 0-2.2 1.7-3.9 3.9-3.9 2.1 0 3.9 1.8 3.9 3.9zm-80.6 13.5c0 2.2-1.7 3.9-3.9 3.9-2.1 0-3.9-1.8-3.9-3.9 0-2.2 1.7-3.9 3.9-3.9s3.9 1.8 3.9 3.9zm19.3 0c0 2.2-1.7 3.9-3.9 3.9-2.1 0-3.9-1.8-3.9-3.9 0-2.2 1.7-3.9 3.9-3.9 2.1 0 3.9 1.8 3.9 3.9zm18.8 0c0 2.2-1.7 3.9-3.9 3.9-2.1 0-3.9-1.8-3.9-3.9 0-2.2 1.7-3.9 3.9-3.9 2.1 0 3.9 1.8 3.9 3.9zm21 0c0 2.2-1.7 3.9-3.9 3.9-2.1 0-3.9-1.8-3.9-3.9 0-2.2 1.7-3.9 3.9-3.9s3.9 1.8 3.9 3.9zm21.5 0c0 2.2-1.7 3.9-3.9 3.9-2.1 0-3.9-1.8-3.9-3.9 0-2.2 1.7-3.9 3.9-3.9 2.1 0 3.9 1.8 3.9 3.9zm-80.6 13.6c0 2.2-1.7 3.9-3.9 3.9-2.1 0-3.9-1.7-3.9-3.9s1.7-3.9 3.9-3.9 3.9 1.8 3.9 3.9zm19.3 0c0 2.2-1.7 3.9-3.9 3.9-2.1 0-3.9-1.7-3.9-3.9s1.7-3.9 3.9-3.9c2.1 0 3.9 1.8 3.9 3.9zm18.8 0c0 2.2-1.7 3.9-3.9 3.9-2.1 0-3.9-1.7-3.9-3.9s1.7-3.9 3.9-3.9c2.1 0 3.9 1.8 3.9 3.9zm0 0"/></symbol><symbol viewBox="0 0 150 150" id="advantages_2" xmlns="http://www.w3.org/2000/svg"><path class="aest0" d="M21.7 12.1h106.5v125.8H21.7z"/><path d="M127.7 116.5l-18.3-32.1c1.9-.9 3-2.8 2.8-5.1L110.9 68l7.8-8.2c1.7-1.7 1.9-4.7.1-6.8l-7.8-8.4 1.6-11.5c.2-2.5-1.5-4.9-4-5.4l-11.2-2.2-5.4-10c-1.1-2.3-3.8-3.3-6.3-2.3h-.1L75.2 18 65 13c-1.1-.6-2.5-.7-3.7-.4-1.2.4-2.2 1.2-2.8 2.3l-5.6 10-11.2 2c-2.6.5-4.3 2.8-4.1 5.6L39 43.9l-7.8 8.2c-1.7 1.7-1.9 4.7-.1 6.8l7.8 8.4-1.6 11.5c-.2 2.2 1.1 4.3 3.2 5.2l-18.4 32.6c-.5.7-.4 1.7 0 2.5.5.7 1.2 1.2 2.1 1.2H44l9 15.7c.5.7 1.2 1.2 2.1 1.2.9 0 1.7-.5 2.1-1.2l17.7-30.1 17.7 30.5c.5.7 1.2 1.2 2.1 1.2.9 0 1.7-.5 2.1-1.2l9-16.1h19.8c.9 0 1.7-.5 2.1-1.2.5-.8.5-1.8 0-2.6zm-72.5 13.3l-7.7-13.2c-.5-.7-1.2-1.2-2.1-1.2h-17l17-30.1 7 1.2 5.4 10c1.1 2.3 3.8 3.3 6.3 2.3h.1l5.1-2.3 2.5 4.3-16.6 29zm7.1-35.5h-.1L56.8 84c-.7-1.2-2-2.2-3.5-2.3l-11.4-2.1 1.6-11.4c.2-1.5-.2-3.1-1.2-4.1l-7.7-8.4 7.8-8.2c1.1-1.1 1.6-2.6 1.4-4.1l-1.4-11.2s0-.1.1-.2l11.2-2c1.4-.2 2.7-1.1 3.5-2.5l5.6-10 10.1 4.9c1.4.7 3.1.7 4.4 0l10.3-4.7h.1L93.1 28c.7 1.2 2 2.2 3.3 2.3l11.2 2.2-1.4 11.5c-.2 1.5.2 3.1 1.2 4.1l7.8 8.4-7.9 8.2c-1.1 1.1-1.6 2.6-1.4 4.1l1.4 11.4-11.1 1.9c-1.4.2-2.7 1.1-3.5 2.5l-5.6 10L77 89.5c-1.4-.7-3.1-.7-4.4 0l-10.3 4.8zm42 21c-.9 0-1.7.5-2.1 1.2l-7.7 13.6L77.1 100c-.1-.4-.2-.6-.5-.9l-2.7-4.8.9-.4 10.1 4.9c.7.4 1.5.5 2.2.5 1.7 0 3.5-.9 4.3-2.5l5.6-10 7.4-1.4 16.9 29.8h-17zm0 0"/><path d="M99.5 56c0-13.6-11.1-24.7-24.7-24.7S50.1 42.4 50.1 56s11.1 24.7 24.7 24.7S99.5 69.6 99.5 56zM74.8 75.8C63.9 75.8 55 66.9 55 56s8.9-19.8 19.8-19.8S94.6 45.1 94.6 56s-8.9 19.8-19.8 19.8zm0 0"/></symbol><symbol viewBox="0 0 150 150" id="advantages_3" xmlns="http://www.w3.org/2000/svg"><path class="afst0" d="M21.7 12.1h106.5v125.8H21.7z"/><path d="M109.8 88.9c4.1 0 7.8 1.7 10.4 4.3 2 2 3.5 4.6 4 7.5h8.1c1 0 1.9-.1 2.7-.4 1.6-.5 3-1.5 4-2.8 1-1.3 1.5-2.9 1.5-4.6 0-.9-.1-1.8-.4-2.7l-4.3-13.4H120c-1.6 0-2.9-1.3-2.9-2.9 0-1.6 1.3-2.9 2.9-2.9h14l-1.2-3.9c-.8-2.7-2-5.2-3.5-7-1.3-1.5-3-2.5-5.2-2.5h-11.4v24.1c0 1.6-1.3 2.9-2.9 2.9-1.6 0-2.9-1.3-2.9-2.9v-36c0-2.4-1-4.5-2.5-6-1.6-1.6-3.7-2.5-6-2.5H27.9c-2.4 0-4.5 1-6 2.5-1.6 1.6-2.5 3.7-2.5 6V47H48c1.6 0 2.9 1.3 2.9 2.9 0 1.6-1.3 2.9-2.9 2.9H19.3v23.1H48c1.6 0 2.9 1.3 2.9 2.9 0 1.6-1.3 2.9-2.9 2.9H19.3v10.5c0 2.4 1 4.5 2.5 6 1.6 1.6 3.7 2.5 6 2.5h5c.6-2.9 2-5.5 4-7.5 2.7-2.7 6.4-4.3 10.4-4.3 4.1 0 7.8 1.7 10.4 4.3 2 2 3.5 4.6 4 7.5H95c.6-2.9 2-5.5 4-7.5 3-2.6 6.7-4.3 10.8-4.3zM6.6 52.8c-1.6 0-2.9-1.3-2.9-2.9C3.7 48.3 5 47 6.6 47h7v-1.1c0-3.9 1.6-7.5 4.2-10.1 2.6-2.6 6.2-4.2 10.1-4.2h70.4c3.9 0 7.5 1.6 10.1 4.2 2.6 2.6 4.2 6.2 4.2 10.1V52H124c4.1 0 7.2 1.8 9.6 4.5 2.1 2.4 3.6 5.7 4.6 9 2.4 7.7 4.9 15.3 7.3 23 .5 1.5.7 3 .7 4.4 0 3-1 5.8-2.7 8.1-1.7 2.3-4.1 4-6.9 4.9-1.4.5-2.9.7-4.4.7h-8.1c-.6 2.9-2 5.5-4 7.5-2.7 2.7-6.4 4.3-10.4 4.3-4.1 0-7.8-1.7-10.4-4.3-2-2-3.5-4.6-4-7.5H61.9c-.6 2.9-2 5.5-4 7.5-2.7 2.7-6.4 4.3-10.4 4.3-4.1 0-7.8-1.7-10.4-4.3-2-2-3.5-4.6-4-7.5h-5c-3.9 0-7.5-1.6-10.1-4.2-2.6-2.6-4.2-6.2-4.2-10.1V81.7h-7c-1.6 0-2.9-1.3-2.9-2.9 0-1.6 1.3-2.9 2.9-2.9h7V52.8H6.6zm22.3 14.5c-1.6 0-2.9-1.3-2.9-2.9 0-1.6 1.3-2.9 2.9-2.9h41.4c1.6 0 2.9 1.3 2.9 2.9 0 1.6-1.3 2.9-2.9 2.9H28.9zm24.8 30.1c1.6 1.6 2.6 3.9 2.6 6.3 0 2.5-1 4.7-2.6 6.3-1.6 1.6-3.9 2.6-6.3 2.6-2.5 0-4.7-1-6.3-2.6-1.6-1.6-2.6-3.9-2.6-6.3 0-2.5 1-4.7 2.6-6.3 1.6-1.6 3.9-2.6 6.3-2.6 2.5-.1 4.7.9 6.3 2.6zm62.4 0c1.6 1.6 2.6 3.9 2.6 6.3 0 2.5-1 4.7-2.6 6.3-1.6 1.6-3.9 2.6-6.3 2.6-2.5 0-4.7-1-6.3-2.6-1.6-1.6-2.6-3.9-2.6-6.3 0-2.5 1-4.7 2.6-6.3 1.6-1.6 3.9-2.6 6.3-2.6 2.4-.1 4.7.9 6.3 2.6zm0 0"/></symbol><symbol viewBox="0 0 150 150" id="advantages_4" xmlns="http://www.w3.org/2000/svg"><path class="agst0" d="M21.7 12.1h106.5v125.8H21.7z"/><path d="M135.9 48.5c0-13.6-11.1-24.7-24.7-24.7H38.8c-13.6 0-24.7 11.1-24.7 24.7V89c0 13.6 11.1 24.7 24.7 24.7h4l8.9 11.3c.6.8 1.5 1.2 2.4 1.2 1 0 1.9-.4 2.4-1.2l8.9-11.3h45.8c13.6 0 24.7-11.1 24.7-24.7V48.5zM88 30h21.3L88 51.3V30zm-26 0v21.3L40.7 30H62zM20.3 48.5c0-7.8 4.9-14.8 12.2-17.4l.3-.1 24.8 24.8H20.3v-7.3zm12.5 58l-.3-.1c-7.3-2.6-12.2-9.6-12.2-17.4v-7.2h37.3l-24.8 24.7zm29.2 1.7l-.2.1c-.1.1-.2.2-.3.4l-7.4 9.4-7.4-9.4c-.6-.8-1.5-1.2-2.5-1.2h-3.6L62 86.2v22zm26-.7V86.2l21.3 21.3H88zM129.7 89c0 7.8-4.9 14.8-12.2 17.4l-.3.1-24.8-24.7h37.3V89zm0-13.5H84.9c-1.7 0-3.1 1.4-3.1 3.1v28.8H68.2V78.7c0-1.7-1.4-3.1-3.1-3.1H20.3V62h44.8c1.7 0 3.1-1.4 3.1-3.1V30h13.6v28.9c0 1.7 1.4 3.1 3.1 3.1h44.8v13.5zm0-19.8H92.4L117.2 31l.3.1c7.3 2.6 12.2 9.6 12.2 17.4v7.2z"/></symbol><symbol viewBox="0 0 150 150" id="advantages_5" xmlns="http://www.w3.org/2000/svg"><path class="ahst0" d="M21.7 12.1h106.5v125.8H21.7z"/><path class="ahst0" d="M-135-128.7h409v410.9h-409z"/><path d="M70 95.5c.9-.9.9-2.5 0-3.4-.9-.9-2.5-.9-3.4 0-.9.9-.9 2.5 0 3.4 1 .9 2.5.9 3.4 0zm-11.3-57c0 14.6 11.8 26.4 26.4 26.4 14.6 0 26.4-11.8 26.4-26.4 0-14.6-11.8-26.4-26.4-26.4-14.6 0-26.4 11.8-26.4 26.4zm48 0c0 11.9-9.7 21.6-21.6 21.6-11.9 0-21.6-9.7-21.6-21.6 0-11.9 9.7-21.6 21.6-21.6 11.9 0 21.6 9.7 21.6 21.6zm0 0"/><path d="M41.2 134.3c.9.9 2.4.9 3.4 0l11.6-11.5c2-2 2.6-4.9 1.7-7.4l2.5-2.4c1.3-1.3 3.1-2 5-2h31.9c5.7 0 11-2.2 15.1-6.1.2-.2-1.3 1.5 21.8-26 3.4-4 2.9-10.1-1.1-13.5-4-3.4-10-2.9-13.5 1.1L105.4 81c-1.8-2.2-4.5-3.6-7.5-3.6H71.2c-3.8-1.6-7.9-2.4-12-2.4-11.6 0-21.7 5.3-27.1 15.3-2.3-.4-4.7.3-6.4 2l-11.4 11.5c-.9.9-.9 2.4 0 3.4l26.9 27.1zm18-54.5c3.7 0 7.2.7 10.6 2.2.3.1.6.2 1 .2h27.3c2.6 0 4.8 2.1 4.8 4.8 0 2.6-2.2 4.8-4.8 4.8H78.4c-1.3 0-2.4 1.1-2.4 2.4 0 1.3 1.1 2.4 2.4 2.4H98c5.3 0 9.6-4.3 9.6-9.6 0-.4 0-.8-.1-1.3 13.7-14.1 15.6-16.1 15.7-16.2 1.7-2 4.7-2.3 6.8-.6 2 1.7 2.3 4.7.6 6.8L109 101.5c-3.1 3-7.3 4.7-11.6 4.7h-32c-3.1 0-6.1 1.2-8.3 3.4l-2 2-18.8-18.9c4.4-8.2 12.6-12.9 22.9-12.9zM29.1 95.7c.8-.8 2-.9 3-.3.4.3-.8-.8 20.8 20.7 1 1 .9 2.5 0 3.4l-9.9 9.8-23.6-23.8 9.7-9.8zM85.9 28h-5.1v11.4h-1.3c-.7 0-1.3.6-1.3 1.3h2.5v2.5h-2.5v1.3h2.5v3.8H82v-3.8h4.5v-1.3H82v-2.5h4.4c1.1 0 3.6-.2 5.3-1.8 1.2-1.1 1.8-2.7 1.8-4.6s-.6-3.5-1.8-4.6c-2.2-2-5.7-1.7-5.8-1.7zm5 10c-1.8 1.7-4.9 1.4-5 1.4h-3.8V29.3H86s3.1-.3 4.9 1.4c.9.9 1.4 2.1 1.4 3.7 0 1.5-.5 2.8-1.4 3.6zm0 0"/><path d="M82.1 48.8h-1.3c-.2 0-.5-.2-.5-.5V45h-2.1c-.2 0-.5-.2-.5-.5v-1.3c0-.2.2-.5.5-.5h2.1v-1.6h-2.1c-.2 0-.5-.2-.5-.5 0-1 .8-1.7 1.7-1.7h.8V28c0-.2.2-.5.5-.5h5.1c.5 0 3.9-.2 6.1 1.9 1.3 1.2 2 2.9 2 4.9 0 2.1-.7 3.7-2 4.9-1.8 1.6-4.3 1.9-5.6 1.9h-3.9v1.6h4c.2 0 .5.2.5.5v1.3c0 .2-.2.5-.5.5h-4v3.4c.2.2 0 .4-.3.4zm-.8-.9h.4v-3.4c0-.2.2-.5.5-.5h4v-.4h-4c-.2 0-.5-.2-.5-.5v-2.5c0-.2.2-.5.5-.5h4.3c1 0 3.3-.2 5-1.7 1.1-1 1.7-2.5 1.7-4.3 0-1.8-.6-3.3-1.7-4.3-2.1-1.9-5.4-1.6-5.4-1.6h-4.7v11c0 .2-.2.5-.5.5h-1.3c-.3 0-.5.1-.7.4h2c.2 0 .5.2.5.5v2.5c0 .2-.2.5-.5.5h-2.1v.4h2.1c.2 0 .5.2.5.5v3.4zm5.1-8h-4.3c-.2 0-.5-.2-.5-.5V29.3c0-.2.2-.5.5-.5H86c.3 0 3.3-.2 5.2 1.5 1 .9 1.6 2.3 1.6 4 0 1.7-.5 3.1-1.5 4-1.6 1.4-3.9 1.6-4.9 1.6zm-3.8-.9H86c.3 0 3 .2 4.6-1.3.8-.8 1.3-1.9 1.3-3.3s-.4-2.6-1.3-3.3c-1.7-1.5-4.4-1.3-4.6-1.3h-3.4V39z"/></symbol><symbol id="basket" viewBox="0 0 150 150" xml:space="preserve" xmlns="http://www.w3.org/2000/svg"><style>.aist0{fill:none}</style><path class="aist0" d="M21.7 12.1h106.5v125.8H21.7z"/><path class="aist0" d="M-135-128.7h409v410.9h-409z"/><path d="M16.4 26.3h13.4l19.1 69.1c.5 2 2.4 3.4 4.5 3.4h58.8c1.9 0 3.5-1.1 4.3-2.8l21.4-49.2c.6-1.5.5-3.1-.4-4.4-.9-1.3-2.3-2.1-3.9-2.1H68.7c-2.6 0-4.7 2.1-4.7 4.7s2.1 4.7 4.7 4.7h57.7l-17.3 39.8H57L37.9 20.3c-.5-2-2.4-3.4-4.5-3.4h-17c-2.6 0-4.7 2.1-4.7 4.7 0 2.5 2.1 4.7 4.7 4.7zM49 131.7c5.9 0 10.6-4.8 10.6-10.6s-4.8-10.6-10.6-10.6c-5.9 0-10.6 4.8-10.6 10.6s4.8 10.6 10.6 10.6zm66.3 0h.8c2.8-.2 5.4-1.5 7.3-3.7 1.9-2.1 2.7-4.8 2.6-7.7-.4-5.8-5.5-10.2-11.3-9.8-5.9.4-10.2 5.5-9.8 11.3.3 5.6 4.9 9.9 10.4 9.9zm0 0"/></symbol><symbol id="bed" viewBox="0 0 150.6 94.3" xml:space="preserve" xmlns="http://www.w3.org/2000/svg"><style/><path d="M139.1 42.2h-1.5V18.1c0-8.5-6.9-15.3-15.3-15.3H28.9c-8.5 0-15.3 6.9-15.3 15.3v24.1h-1.5c-5.8 0-10.5 4.7-10.5 10.5v15.6c0 5.8 4.7 10.5 10.5 10.5h13v9.9c0 1.8 1.5 3.3 3.3 3.3 1.8 0 3.3-1.5 3.3-3.3v-9.9h87.8v9.9c0 1.8 1.5 3.3 3.3 3.3 1.8 0 3.3-1.5 3.3-3.3v-9.9h13c5.8 0 10.5-4.7 10.5-10.5V52.7c0-5.8-4.7-10.5-10.5-10.5zM20.2 18.1c0-4.8 3.9-8.8 8.8-8.8h93.4c4.8 0 8.8 3.9 8.8 8.8v24.1H127v-6.6c0-4.2-3.4-7.6-7.6-7.6H85.5c-4.2 0-7.6 3.4-7.6 7.6v6.6h-4.5v-6.6c0-4.2-3.4-7.6-7.6-7.6H32c-4.2 0-7.6 3.4-7.6 7.6v6.6h-4.2V18.1zm64.2 24.1v-6.6c0-.6.5-1.1 1.1-1.1h33.7c.6 0 1.1.5 1.1 1.1v6.6H84.4zm-53.4 0v-6.6c0-.6.5-1.1 1.1-1.1h33.7c.6 0 1.1.5 1.1 1.1v6.6H31zm112.1 26.1c0 2.2-1.8 3.9-3.9 3.9h-127c-2.2 0-3.9-1.8-3.9-3.9V52.7c0-2.2 1.8-3.9 3.9-3.9h127c2.2 0 3.9 1.8 3.9 3.9v15.6zm0 0"/></symbol><symbol viewBox="0 0 117.9 98.9" id="british_tech" xmlns="http://www.w3.org/2000/svg"><path d="M6-13.5h106.5v125.8H6z"/><path d="M49.7 86.9h44.8c13.1 0 23.7-10.6 23.7-23.7V23.7C118.1 10.6 107.5 0 94.4 0H24C10.9.1.3 10.7.3 23.7v39.4C.3 76.2 10.9 86.8 24 86.8h4l8.8 11.1c.5.7 1.2 1 2.1 1 .9 0 1.6-.4 2-1l8.8-11zm21.7-5.3v-22l22 22h-22zm41.5-18.4c0 7.8-4.9 14.7-12.1 17.3l-.5.2-25-24.9h37.6v7.4zM100.3 6.3l.5.2c7.3 2.6 12.1 9.5 12.1 17.3v7.4H75.3l25-24.9zm-28.9-.9h22l-22 22v-22zM47 5.4v22l-22-22h22zM5.5 23.7c0-7.8 4.9-14.7 12.1-17.3l.5-.2L43 31.1H5.5v-7.4zm0 12.8h44c1.5 0 2.7-1.2 2.7-2.7V5.4h14v28.5c0 1.5 1.2 2.7 2.7 2.7h44v13.8h-44c-1.5 0-2.7 1.2-2.7 2.7v28.4h-14V53.2c0-1.5-1.2-2.7-2.7-2.7h-44v-14zm12.7 44.1l-.5-.2c-7.3-2.6-12.1-9.5-12.1-17.3v-7.4h37.6l-25 24.9zm20.6 11.5l-7.5-9.5c-.5-.7-1.3-1-2.1-1h-4.4l22.1-22v22.5l-.3.2c-.1.1-.1.1-.2.3l-7.6 9.5z"/></symbol><symbol id="cart" viewBox="0 0 126.9 115.5" xml:space="preserve" xmlns="http://www.w3.org/2000/svg"><style>.alst0{fill:none}.alst1{fill:#005eff}</style><path class="alst0" d="M10-3.9h106.5v125.8H10z"/><path class="alst0" d="M-146.7-144.7h409v410.9h-409z"/><path class="alst1" d="M4.7 10.3h13.4l19.1 69.1c.5 2 2.4 3.4 4.5 3.4h58.8c1.9 0 3.5-1.1 4.3-2.8l21.4-49.2c.6-1.5.5-3.1-.4-4.4-.9-1.3-2.3-2.1-3.9-2.1H57c-2.6 0-4.7 2.1-4.7 4.7s2.1 4.7 4.7 4.7h57.7L97.4 73.5H45.3L26.2 4.3c-.5-2-2.4-3.4-4.5-3.4h-17C2.1.9 0 3 0 5.6c0 2.5 2.1 4.7 4.7 4.7zm32.6 105.4c5.9 0 10.6-4.8 10.6-10.6s-4.8-10.6-10.6-10.6c-5.9 0-10.6 4.8-10.6 10.6s4.8 10.6 10.6 10.6zm66.3 0h.8c2.8-.2 5.4-1.5 7.3-3.7 1.9-2.1 2.7-4.8 2.6-7.7-.4-5.8-5.5-10.2-11.3-9.8-5.9.4-10.2 5.5-9.8 11.3.3 5.6 4.9 9.9 10.4 9.9z"/></symbol><symbol id="concept_2" viewBox="0 0 91.3 95.3" xml:space="preserve" xmlns="http://www.w3.org/2000/svg"><style>.amst0{fill:#005eff}</style><path class="amst0" d="M5 52.6h67.7c9.8 0 17.8-8 17.8-17.8S82.5 17 72.7 17c-1 0-7.2.1-11.9 4.6-3.1 3.1-4.7 7.3-4.7 12.5 0 2.3 1.9 4.2 4.2 4.2 2.3 0 4.2-1.9 4.2-4.2 0-2.9.7-5 2.2-6.5 2.2-2.2 5.7-2.3 6-2.3h.1c5.2 0 9.4 4.2 9.4 9.4s-4.2 9.4-9.4 9.4H5C2.7 44.1.8 46 .8 48.3c0 2.4 1.9 4.3 4.2 4.3z"/><path class="amst0" d="M5 36.2h32.3c9.8 0 17.8-8 17.8-17.8S47.1.6 37.3.6c-1 0-7.2.1-11.9 4.6-3.1 3.1-4.7 7.3-4.7 12.5 0 2.3 1.9 4.2 4.2 4.2s4.2-1.9 4.2-4.2c0-2.9.7-5 2.2-6.5 2.2-2.2 5.7-2.3 6-2.3h.1c5.2 0 9.4 4.2 9.4 9.4s-4.2 9.4-9.4 9.4H5c-2.3 0-4.2 1.9-4.2 4.2s1.9 4.3 4.2 4.3zm67.7 23.6H5C2.7 59.8.8 61.7.8 64c0 2.3 1.9 4.2 4.2 4.2h67.7c5.2 0 9.4 4.2 9.4 9.4S77.9 87 72.7 87h-.1c-.3 0-3.8-.1-6-2.3-1.4-1.4-2.2-3.6-2.2-6.5 0-2.3-1.9-4.2-4.2-4.2-2.3 0-4.2 1.9-4.2 4.2 0 5.2 1.6 9.4 4.7 12.5 4.5 4.4 10.4 4.6 11.8 4.6h.1c9.8 0 17.8-8 17.8-17.8.1-9.7-7.9-17.7-17.7-17.7z"/></symbol><symbol id="concept_3" viewBox="0 0 150 150" xml:space="preserve" xmlns="http://www.w3.org/2000/svg"><style>.anst0{fill:#005eff}</style><path class="anst0" d="M47.6 83.1H7c-1.6 0-2.9-1.3-2.9-2.9 0-1.6 1.3-2.9 2.9-2.9h40.6c1.6 0 2.9 1.3 2.9 2.9 0 1.6-1.3 2.9-2.9 2.9zm96.5 0h-40.6c-1.6 0-2.9-1.3-2.9-2.9 0-1.6 1.3-2.9 2.9-2.9h40.6c1.6 0 2.9 1.3 2.9 2.9 0 1.6-1.3 2.9-2.9 2.9zm-47.6-11H55.9c-1.6 0-2.9-1.3-2.9-2.9s1.3-2.9 2.9-2.9h40.6c1.6 0 2.9 1.3 2.9 2.9s-1.3 2.9-2.9 2.9zM75.3 86.2l-8.4 8.4c-.2.2-.4.6-.4.9 0 .3.1.7.4.9l.8.8c.2.2.6.4.9.4.3 0 .7-.1.9-.4l4.9-4.9v15.6c0 .7.6 1.3 1.3 1.3h1.1c.7 0 1.3-.6 1.3-1.3V92.2l4.9 5c.2.2.6.4.9.4.3 0 .7-.1.9-.4l.8-.8c.2-.2.4-.6.4-.9 0-.3-.1-.7-.4-.9l-8.4-8.4c-.2-.2-.6-.4-.9-.4-.4 0-.8.1-1 .4m49.5-20.6l8.4-8.4c.2-.2.4-.6.4-.9 0-.3-.1-.7-.4-.9l-.8-.8c-.2-.2-.6-.4-.9-.4-.3 0-.7.1-.9.4l-4.9 4.9V43.9c0-.7-.6-1.3-1.3-1.3h-1.1c-.7 0-1.3.6-1.3 1.3v15.7l-4.9-5c-.2-.2-.6-.4-.9-.4-.3 0-.7.1-.9.4l-.8.8c-.2.2-.4.6-.4.9 0 .3.1.7.4.9l8.4 8.4c.2.2.6.4.9.4.4 0 .7-.2 1-.4m-96.6 0l8.4-8.4c.2-.2.4-.6.4-.9 0-.3-.1-.7-.4-.9l-.8-.8c-.2-.2-.6-.4-.9-.4-.3 0-.7.1-.9.4l-4.9 4.9V43.9c0-.7-.6-1.3-1.3-1.3h-1.1c-.7 0-1.3.6-1.3 1.3v15.7l-4.9-5c-.2-.2-.6-.4-.9-.4-.3 0-.7.1-.9.4l-.8.8c-.2.2-.4.6-.4.9 0 .3.1.7.4.9l8.4 8.4c.2.2.6.4.9.4.4 0 .7-.2 1-.4"/></symbol><symbol id="delivery" viewBox="0 0 150 91.1" xml:space="preserve" xmlns="http://www.w3.org/2000/svg"><style>.aost0{fill:#005eff}</style><path class="aost0" d="M147.1 60.1l-7.5-23.4c-1-3.4-2.5-6.7-4.7-9.2-2.4-2.8-5.5-4.6-9.7-4.6h-11.6v-6.2c0-4-1.7-7.7-4.3-10.3-2.6-2.7-6.3-4.3-10.3-4.3H27.3c-4 0-7.7 1.7-10.3 4.3-2.7 2.6-4.3 6.3-4.3 10.3v1.2H5.6c-1.6 0-2.9 1.3-2.9 2.9 0 1.6 1.3 2.9 2.9 2.9h7.1v23.6H5.6c-1.6 0-2.9 1.3-2.9 2.9s1.3 2.9 2.9 2.9h7.3v10.8c0 4 1.7 7.7 4.3 10.3 2.6 2.7 6.3 4.3 10.3 4.3h5.1c.6 3 2 5.6 4.1 7.7 2.7 2.7 6.5 4.4 10.6 4.4s7.9-1.7 10.6-4.4c2-2.1 3.5-4.7 4.1-7.7h33.9c.6 3 2 5.6 4.1 7.7 2.7 2.7 6.5 4.4 10.6 4.4s7.9-1.7 10.6-4.4c2-2.1 3.5-4.7 4.1-7.7h8.3c1.5 0 3.1-.2 4.5-.7 2.9-.9 5.3-2.7 7-5s2.7-5.1 2.7-8.2c0-1.4-.2-3-.7-4.5zM47.2 84.7c-5.1 0-9.2-4.1-9.2-9.2s4.1-9.2 9.2-9.2 9.2 4.1 9.2 9.2-4.1 9.2-9.2 9.2zm63.5 0c-5.1 0-9.2-4.1-9.2-9.2s4.1-9.2 9.2-9.2 9.2 4.1 9.2 9.2-4.1 9.2-9.2 9.2zm30-15.4c-1 1.3-2.4 2.4-4.1 2.9-.9.3-1.8.4-2.8.4h-8.3c-.6-3-2-5.6-4.1-7.7-2.7-2.7-6.5-4.4-10.6-4.4-4.2 0-7.9 1.6-10.7 4.2-2 2.1-3.5 4.7-4.1 7.7H62c-.6-3-2-5.6-4.1-7.7-2.7-2.7-6.5-4.4-10.6-4.4s-7.9 1.7-10.6 4.4c-2 2.1-3.5 4.7-4.1 7.7h-5.1c-2.4 0-4.6-1-6.2-2.6-1.6-1.6-2.6-3.8-2.6-6.2V52.9h29.2c1.6 0 2.9-1.3 2.9-2.9s-1.3-2.9-2.9-2.9H18.7V23.6h29.1c1.6 0 2.9-1.3 2.9-2.9 0-1.6-1.3-2.9-2.9-2.9H18.6v-1.2c0-2.4 1-4.6 2.6-6.2 1.6-1.6 3.8-2.6 6.2-2.6h71.8c2.4 0 4.6 1 6.2 2.6s2.6 3.8 2.6 6.2v36.9c0 1.6 1.3 2.9 2.9 2.9s2.9-1.3 2.9-2.9V29h11.6c2.3 0 4 1 5.3 2.5 1.6 1.8 2.7 4.4 3.6 7.1l1.3 3.9h-14.3c-1.6 0-2.9 1.3-2.9 2.9s1.3 2.9 2.9 2.9h16.2l4.3 13.6c.3.9.4 1.8.4 2.7 0 1.7-.5 3.4-1.5 4.7z"/><path class="aost0" d="M70.6 32.6H28.4c-1.6 0-2.9 1.3-2.9 2.9s1.3 2.9 2.9 2.9h42.2c1.6 0 2.9-1.3 2.9-2.9s-1.3-2.9-2.9-2.9z"/></symbol><symbol id="garantee" viewBox="0 0 107.7 124.8" xml:space="preserve" xmlns="http://www.w3.org/2000/svg"><style>.apst1{fill:#005eff}</style><path d="M1-.5h106.5v125.8H1z"/><path class="apst1" d="M106.9 103.9L88.6 71.8c1.9-.9 3-2.8 2.8-5.1l-1.3-11.3 7.8-8.2c1.7-1.7 1.9-4.7.1-6.8L90.3 32l1.6-11.5c.2-2.5-1.5-4.9-4-5.4l-11.2-2.2-5.4-10C70.2.6 67.5-.4 65 .6h-.1L54.4 5.4 44.2.4c-1.1-.6-2.5-.7-3.7-.4-1.2.4-2.2 1.2-2.8 2.3l-5.6 10-11.2 2c-2.6.5-4.3 2.8-4.1 5.6l1.4 11.4-7.8 8.2c-1.7 1.7-1.9 4.7-.1 6.8l7.8 8.4-1.6 11.5c-.2 2.2 1.1 4.3 3.2 5.2L1.4 104c-.5.7-.4 1.7 0 2.5.5.7 1.2 1.2 2.1 1.2h19.8l9 15.7c.5.7 1.2 1.2 2.1 1.2.9 0 1.7-.5 2.1-1.2l17.7-30.1 17.7 30.5c.5.7 1.2 1.2 2.1 1.2s1.7-.5 2.1-1.2l9-16.1h19.8c.9 0 1.7-.5 2.1-1.2.4-.8.4-1.8-.1-2.6zm-72.4 13.3L26.8 104c-.5-.7-1.2-1.2-2.1-1.2h-17l17-30.1 7 1.2 5.4 10c1.1 2.3 3.8 3.3 6.3 2.3h.1l5.1-2.3 2.5 4.3-16.6 29zm7-35.5L36 71.4c-.7-1.2-2-2.2-3.5-2.3L21.2 67l1.6-11.4c.2-1.5-.2-3.1-1.2-4.1l-7.7-8.4 7.8-8.2c1.1-1.1 1.6-2.6 1.4-4.1l-1.4-11.2s0-.1.1-.2l11.2-2c1.4-.2 2.7-1.1 3.5-2.5l5.6-10 10.1 4.9c1.4.7 3.1.7 4.4 0l10.3-4.7h.1l5.4 10.3c.7 1.2 2 2.2 3.3 2.3l11.2 2.2-1.4 11.5c-.2 1.5.2 3.1 1.2 4.1l7.8 8.4-7.9 8.2c-1.1 1.1-1.6 2.6-1.4 4.1l1.4 11.4-11.1 1.9c-1.4.2-2.7 1.1-3.5 2.5l-5.6 10-10.1-5.1c-1.4-.7-3.1-.7-4.4 0l-10.4 4.8zm42.1 21c-.9 0-1.7.5-2.1 1.2l-7.7 13.6-17.5-30.1c-.1-.4-.2-.6-.5-.9l-2.7-4.8.9-.4 10.1 4.9c.7.4 1.5.5 2.2.5 1.7 0 3.5-.9 4.3-2.5l5.6-10 7.4-1.4 16.9 29.8h-17v.1z"/><path class="apst1" d="M78.8 43.4c0-13.6-11.1-24.7-24.7-24.7S29.4 29.8 29.4 43.4s11.1 24.7 24.7 24.7S78.8 57 78.8 43.4zM54.1 63.2c-10.9 0-19.8-8.9-19.8-19.8s8.9-19.8 19.8-19.8 19.8 8.9 19.8 19.8c-.1 10.9-9 19.8-19.8 19.8z"/></symbol><symbol id="high" viewBox="0 0 122.4 125.8" xml:space="preserve" xmlns="http://www.w3.org/2000/svg"><style>.aqst0{fill:none}</style><path class="aqst0" d="M7.9.5h106.5v125.8H7.9z"/><path class="aqst0" d="M-148.8-140.3h409v410.9h-409z"/><path d="M119.4 29.4L95.1 5.1c-3.8-4.6-11.4-4.6-16 0L3 81.1c-1.5 2.3-3 5.3-3 8.4 0 3 .8 6.1 3 8.4l24.3 24.3c2.3 1.5 5.3 3 8.4 3 3 0 5.3-1.5 7.6-3l76.1-76.1c1.5-2.3 3-5.3 3-8.4.1-3-.7-6.1-3-8.3zm-5.3 11.4L38 116.9c-1.5 1.5-3.8 1.5-5.3 0L8.4 92.6c0-.8-.8-1.5-.8-3s0-2.3.8-3l8.7-8.7 9.5 9.5c.8.8 2.3.8 3 .8.8 0 2.3-.8 2.3-.8 1.5-1.5 1.5-3.8 0-5.3l-9.5-9.5 12.2-12.2 9.5 9.5c.8.8 2.3.8 3 .8.8 0 2.3-.8 2.3-.8 1.5-1.5 1.5-3.8 0-5.3l-9.5-9.5 12.2-12.2 9.5 9.5c.8.8 2.3.8 3 .8.8 0 1.5-.8 2.3-.8 1.5-1.5 1.5-3.8 0-5.3l-9.5-9.5 12.2-12.2 9.5 9.5c.8.8 2.3.8 3 .8.8 0 1.5 0 2.3-.8 1.5-1.5 1.5-3.8 0-5.3l-9.5-9.5 9.5-9.5c.8 0 2.3-.8 3-.8 1.5 0 2.3.8 2.3.8L114 34.9c0 .8.8 1.5.8 3 0 1.3 0 2.1-.7 2.9z"/></symbol><symbol id="instagram" viewBox="0 0 123 123.7" xml:space="preserve" xmlns="http://www.w3.org/2000/svg"><style>.arst0{fill:#fff}</style><path class="arst0" d="M121.9 62c0-33.2-27-60.2-60.2-60.2S1.5 28.8 1.5 62s27 60.2 60.2 60.2 60.2-27 60.2-60.2zM7 62C7 31.8 31.5 7.3 61.7 7.3s54.7 24.5 54.7 54.7-24.5 54.7-54.7 54.7S7 92.2 7 62z"/><path class="arst0" d="M71.5 85.7H51.6c-7.6 0-13.7-6.2-13.7-13.7V52.1c0-7.6 6.2-13.7 13.7-13.7h19.8c7.6 0 13.7 6.2 13.7 13.7v19.8c.1 7.6-6 13.8-13.6 13.8zM51.6 42c-5.5 0-10.1 4.5-10.1 10.1v19.8C41.5 77.4 46 82 51.6 82h19.8c5.5 0 10.1-4.5 10.1-10.1V52.1C81.5 46.6 77 42 71.4 42H51.6z"/><path class="arst0" d="M61.6 74.8c-7 0-12.8-5.7-12.8-12.8s5.7-12.8 12.8-12.8c7 0 12.8 5.7 12.8 12.8s-5.8 12.8-12.8 12.8zm0-21.9c-5 0-9.1 4.1-9.1 9.1s4.1 9.1 9.1 9.1 9.1-4.1 9.1-9.1-4.1-9.1-9.1-9.1z"/><circle class="arst0" cx="74.5" cy="49.1" r="1.8"/></symbol><symbol id="odnoklassniki" viewBox="0 0 124 123.3" xml:space="preserve" xmlns="http://www.w3.org/2000/svg"><style>.asst0{fill:#fff}</style><path class="asst0" d="M122.2 61.8c0-33.2-27-60.2-60.2-60.2S1.8 28.5 1.8 61.8C1.8 95 28.7 122 62 122c33.2 0 60.2-26.9 60.2-60.2zm-114.9 0C7.3 31.6 31.8 7.1 62 7.1s54.7 24.5 54.7 54.7-24.5 54.7-54.7 54.7S7.3 92.1 7.3 61.8z"/><path class="asst0" d="M62 33.9c-7.7 0-14 6.3-14 14s6.3 14 14 14 14-6.3 14-14-6.3-14-14-14zm0 21c-3.9 0-7-3.1-7-7s3.1-7 7-7 7 3.1 7 7-3.1 7-7 7z"/><path class="asst0" d="M80.5 61.5c-1.4-1.4-3.6-1.4-4.9 0-7.5 7.5-19.7 7.5-27.2 0-1.4-1.4-3.6-1.4-4.9 0-1.4 1.4-1.4 3.6 0 4.9 4.3 4.3 9.9 6.8 15.5 7.5l-10 10c-1.4 1.4-1.4 3.6 0 4.9 1.4 1.4 3.6 1.4 4.9 0l8-8 8 8c.7.7 1.6 1 2.5 1s1.8-.3 2.5-1c1.4-1.4 1.4-3.6 0-4.9l-10-10c5.7-.6 11.2-3.1 15.5-7.5 1.5-1.4 1.5-3.6.1-4.9z"/></symbol><symbol id="phone_chat" viewBox="0 0 150 150" xml:space="preserve" xmlns="http://www.w3.org/2000/svg"><style/><path d="M38.2 122.2c0-3.5.1-7.1-.1-10.6-.1-1.2-.6-2.6-1.4-3.4-7.8-7.6-13.2-16.7-15.4-27.3-4.5-22.1 1.8-40.7 19.2-55.2C51.9 16.1 65.3 12.2 80 13.6c13.5 1.2 25.1 6.9 34.5 16.7 10.2 10.6 15.6 23.3 15.6 37.9 0 15.4-5.6 28.7-16.6 39.5-12.1 11.9-26.8 17-43.7 15.7-1.3-.1-2.8.2-4 .8-7.6 3.8-15.1 7.7-22.6 11.6-3.5 1.8-5 .9-5-3v-10.6zm5.2 7.5c1-.5 1.7-.8 2.3-1.1 6.2-3.2 12.4-6.5 18.7-9.6 1.4-.7 3.1-.9 4.6-1 2.7-.1 5.5.4 8.2.2 13.7-.8 25.4-6.2 34.6-16.5 15.6-17.1 17.7-42.6 3.7-62.2-12.7-17.7-33.5-25-54.6-18.8C41.8 26.4 29.8 39.8 26 59.3c-3.5 17.8 2 33.4 15.3 45.9 1.5 1.4 2.1 2.8 2.1 4.8-.1 6.5 0 12.9 0 19.7z"/><path d="M48.7 59c0-6.2 2.6-11.1 7.3-15 3-2.6 7-2.4 9.8.3 2 1.9 3.9 3.8 5.8 5.8 2.9 3 3.1 6.7.6 10-2.3 3.1-2.2 4.7.5 7.5l4.1 4.1c2.2 2.1 4.2 2.2 6.5.4 4.1-3 7.4-2.8 11 .7 1.6 1.6 3.2 3.1 4.7 4.7 2.8 3 2.9 7.1.2 10.2-8 9.1-20 9.5-28.6.9L54.5 72.5c-3.8-3.8-5.7-8.2-5.8-13.5zm5.3.3c0 3.7 1.2 6.5 4.4 9.7 5.2 5.2 10.4 10.4 15.6 15.7 6.5 6.4 13.9 6.5 20.5.2 1.8-1.7 1.8-2.6 0-4.4-1.2-1.3-2.5-2.5-3.7-3.8-1.5-1.7-2.8-1.7-4.5-.3-3.8 3.1-8.6 3-12.3-.3-1.8-1.6-3.5-3.3-5.2-5.1-4.2-4.4-4.5-9-.8-13.9.8-1.1 1-2.1 0-3.2-1.8-1.9-3.6-3.9-5.6-5.6-.6-.5-2.4-.5-3.1 0-3.4 2.7-5.4 6.2-5.3 11z"/></symbol><symbol id="pillow_1" viewBox="0 0 80.3 76.3" xml:space="preserve" xmlns="http://www.w3.org/2000/svg"><style/><path d="M76.3 7.9c-1.5-.3-3 .6-3.3 2.1l-2 9.5c-6.5-11-18.3-18-31.3-18-20 0-36.3 16.3-36.3 36.3 0 1.5 1.3 2.8 2.8 2.8 1.5 0 2.8-1.3 2.8-2.8 0-17 13.8-30.7 30.7-30.7 11.1 0 21.1 5.9 26.6 15.3l-9.3-2c-1.5-.3-3 .6-3.3 2.1-.3 1.5.6 3 2.1 3.3l16 3.4c.3.1.5.1.8.1.5 0 .9-.2 1.3-.4.6-.4 1.1-1 1.2-1.8l3.4-16c.3-1.4-.7-2.9-2.2-3.2zm-2.8 26.3c-1.5.1-2.8 1.3-2.7 2.9.3 8.2-2.7 16-8.3 22-5.6 6-13.2 9.4-21.4 9.7h-1c-10.7 0-20.6-5.6-26.1-14.6l9.7 2.6c1.5.4 3-.5 3.4-2 .4-1.5-.5-3-2-3.4L9.3 47.3c-.7-.2-1.5-.1-2.1.3-.6.4-1.1 1-1.3 1.7L1.6 65c-.4 1.5.5 3 2 3.4.2.1.5.1.7.1 1.2 0 2.4-.8 2.7-2.1l2.4-8.9C16 68 27.5 74.5 40 74.5h1.2c9.7-.3 18.7-4.4 25.3-11.5 6.6-7.1 10.1-16.3 9.8-26 0-1.6-1.3-2.8-2.8-2.8zm0 0"/></symbol><symbol id="pillow_2" viewBox="0 0 80.3 76.3" xml:space="preserve" xmlns="http://www.w3.org/2000/svg"><style/><path d="M39.7.5C18.9.5 2 17.4 2 38.2s16.9 37.7 37.7 37.7S77.4 59 77.4 38.2 60.4.5 39.7.5zm0 72.3c-19.1 0-34.6-15.5-34.6-34.6S20.6 3.6 39.7 3.6s34.6 15.5 34.6 34.6-15.6 34.6-34.6 34.6zm0 0"/><path d="M39.7 76.3c-21 0-38.2-17.1-38.2-38.2S18.6 0 39.7 0s38.2 17.1 38.2 38.2-17.2 38.1-38.2 38.1zm0-75.3C19.2 1 2.5 17.7 2.5 38.2c0 20.5 16.7 37.1 37.1 37.1 20.5 0 37.1-16.7 37.1-37.1C76.8 17.7 60.1 1 39.7 1zm0 72.3c-19.4 0-35.1-15.7-35.1-35.1 0-19.4 15.7-35.1 35.1-35.1 19.4 0 35.1 15.7 35.1 35.1 0 19.3-15.8 35.1-35.1 35.1zm0-69.2C20.9 4.1 5.6 19.4 5.6 38.2s15.3 34.1 34.1 34.1S73.8 57 73.8 38.2C73.7 19.4 58.5 4.1 39.7 4.1z"/><path d="M23.7 21.2c2.6-.5 4 .1 5.6.7 1.3.6 2.8 1.2 4.9 1.2.7 0 1.5-.1 2.4-.2 3.5-.7 5.1-2.2 6.5-3.6 1.3-1.2 2.3-2.3 5-2.8.8-.2 1.4-1 1.2-1.8-.2-.8-1-1.4-1.8-1.2-3.5.7-5.1 2.2-6.5 3.6-1.3 1.2-2.3 2.3-5 2.8-2.6.5-4-.1-5.6-.7-1.8-.7-3.9-1.6-7.4-.9-.8.2-1.4 1-1.2 1.8.3.8 1.1 1.3 1.9 1.1zm0 0"/><path d="M34.3 23.7c-2.2 0-3.8-.6-5.1-1.2-1.6-.7-2.9-1.2-5.3-.7-1.1.2-2.2-.5-2.4-1.6-.2-1.1.5-2.2 1.6-2.4 3.7-.7 5.8.2 7.7 1 1.6.7 2.9 1.2 5.3.7 2.5-.5 3.4-1.4 4.7-2.6 1.5-1.4 3.1-3 6.8-3.7.5-.1 1.1 0 1.5.3.5.3.8.8.9 1.3.1.5 0 1.1-.3 1.5-.3.5-.8.8-1.3.9-2.5.5-3.4 1.4-4.7 2.6-1.5 1.4-3.1 3-6.8 3.7-1 .1-1.8.2-2.6.2zm-8.8-3.2c1.6 0 2.8.5 4 1 1.3.6 2.7 1.1 4.7 1.1.7 0 1.5-.1 2.3-.2 3.4-.6 4.9-2.1 6.2-3.4 1.3-1.2 2.5-2.4 5.2-2.9.3-.1.5-.2.7-.4.2-.2.2-.5.2-.8-.1-.3-.2-.5-.4-.7-.2-.2-.5-.2-.7-.2-3.4.6-4.9 2.1-6.2 3.4-1.3 1.2-2.5 2.4-5.2 2.9-2.8.5-4.3-.1-5.9-.8-1.7-.7-3.7-1.5-7.1-.9-.6.1-.9.6-.8 1.2.1.6.6.9 1.2.8.6 0 1.3-.1 1.8-.1zm11.1 37.3c-3.4-.4-4.9-1.9-6.6-3.5-1.8-1.8-3.9-3.9-8.4-4.4-.8-.1-1.6.5-1.7 1.3-.1.8.5 1.6 1.3 1.7 3.4.4 4.9 1.9 6.6 3.5 1.8 1.8 3.9 3.9 8.4 4.4h.2c.8 0 1.4-.6 1.5-1.4.2-.8-.4-1.5-1.3-1.6zm0 0"/><path d="M36.4 61.3h-.2c-4.6-.5-6.8-2.7-8.7-4.5-1.7-1.7-3.1-3-6.3-3.4-.5-.1-1-.3-1.4-.8-.3-.4-.5-1-.4-1.5.1-1.1 1.2-1.9 2.3-1.8 4.6.5 6.8 2.7 8.7 4.5 1.7 1.7 3.1 3 6.3 3.4 1.1.1 1.9 1.2 1.8 2.3-.2 1.1-1 1.8-2.1 1.8zm-14.9-11c-.5 0-1 .4-1 .9 0 .3 0 .5.2.8.2.2.4.3.7.4 3.6.4 5.2 2 6.9 3.7 1.8 1.8 3.8 3.8 8.1 4.3h.1c.5 0 1-.4 1-.9.1-.6-.3-1.1-.9-1.1-3.6-.4-5.2-2-6.9-3.7-1.8-1.8-3.8-3.8-8.1-4.3 0-.1-.1-.1-.1-.1zM60.2 41c-3.4-.2-5-1.6-6.8-3.2-1.9-1.7-4.1-3.6-8.6-3.9-.8-.1-1.6.6-1.6 1.4-.1.8.6 1.6 1.4 1.6 3.4.2 5 1.6 6.8 3.2 1.9 1.7 4.1 3.6 8.6 3.9h.1c.8 0 1.5-.6 1.5-1.4.1-.8-.5-1.5-1.4-1.6zm0 0"/><path d="M60.2 44.6h-.1c-4.6-.3-6.9-2.3-8.9-4-1.8-1.6-3.2-2.8-6.5-3-.5 0-1-.3-1.4-.7-.4-.4-.5-.9-.5-1.5 0-.5.3-1 .7-1.4.4-.4.9-.5 1.5-.5 4.6.3 6.9 2.3 8.9 4 1.8 1.6 3.2 2.8 6.5 3 .5 0 1 .3 1.4.7.4.4.5.9.5 1.5-.2 1.1-1.1 1.9-2.1 1.9zM44.8 34.5c-.3 0-.5.1-.7.3-.2.2-.3.4-.3.7 0 .3.1.5.3.7.2.2.4.3.7.3 3.6.2 5.3 1.7 7.1 3.3 1.9 1.7 4 3.5 8.3 3.8h.1c.5 0 1-.4 1-1s-.4-1-1-1.1c-3.6-.2-5.3-1.7-7.1-3.3-1.9-1.6-4.1-3.5-8.4-3.7zM26.1 36c0-3-2.4-5.4-5.4-5.4-3 0-5.4 2.4-5.4 5.4 0 3 2.4 5.4 5.4 5.4 3 0 5.4-2.4 5.4-5.4zm-7.7 0c0-1.3 1-2.3 2.3-2.3 1.3 0 2.3 1 2.3 2.3 0 1.3-1 2.3-2.3 2.3-1.3 0-2.3-1-2.3-2.3zm0 0"/><path d="M20.7 41.7c-3.2 0-5.7-2.6-5.7-5.7 0-3.2 2.6-5.7 5.7-5.7s5.7 2.6 5.7 5.7c.1 3.2-2.5 5.7-5.7 5.7zm0-10.7c-2.7 0-5 2.2-5 5 0 2.7 2.2 5 5 5s5-2.2 5-5c0-2.7-2.2-5-5-5zm0 7.7c-1.5 0-2.7-1.2-2.7-2.7 0-1.5 1.2-2.7 2.7-2.7s2.7 1.2 2.7 2.7c0 1.5-1.2 2.7-2.7 2.7zm0-4.6c-1.1 0-1.9.9-1.9 1.9s.9 1.9 1.9 1.9 1.9-.9 1.9-1.9-.8-1.9-1.9-1.9zM55 30.3c3 0 5.4-2.4 5.4-5.4S58 19.6 55 19.6c-3 0-5.4 2.4-5.4 5.4s2.5 5.3 5.4 5.3zm0-7.6c1.3 0 2.3 1 2.3 2.3 0 1.3-1 2.3-2.3 2.3-1.3 0-2.3-1-2.3-2.3 0-1.3 1.1-2.3 2.3-2.3zm0 0"/><path d="M55 30.7c-3.2 0-5.7-2.6-5.7-5.7s2.6-5.7 5.7-5.7 5.7 2.6 5.7 5.7-2.5 5.7-5.7 5.7zM55 20c-2.7 0-5 2.2-5 5s2.2 5 5 5c2.7 0 5-2.2 5-5s-2.2-5-5-5zm0 7.6c-1.5 0-2.7-1.2-2.7-2.7 0-1.5 1.2-2.7 2.7-2.7s2.7 1.2 2.7 2.7c0 1.5-1.2 2.7-2.7 2.7zm0-4.6c-1.1 0-1.9.9-1.9 1.9 0 1.1.9 1.9 1.9 1.9s1.9-.9 1.9-1.9c0-1-.8-1.9-1.9-1.9z"/><g><path d="M44.6 45.4c-3 0-5.4 2.4-5.4 5.4 0 3 2.4 5.4 5.4 5.4 3 0 5.4-2.4 5.4-5.4 0-3-2.4-5.4-5.4-5.4zm0 7.6c-1.3 0-2.3-1-2.3-2.3 0-1.3 1-2.3 2.3-2.3s2.3 1 2.3 2.3c0 1.3-1 2.3-2.3 2.3zm0 0"/><path d="M44.6 56.5c-3.2 0-5.7-2.6-5.7-5.7s2.6-5.7 5.7-5.7 5.7 2.6 5.7 5.7-2.5 5.7-5.7 5.7zm0-10.7c-2.7 0-5 2.2-5 5 0 2.7 2.2 5 5 5 2.7 0 5-2.2 5-5s-2.3-5-5-5zm0 7.6c-1.5 0-2.7-1.2-2.7-2.7s1.2-2.7 2.7-2.7c1.5 0 2.7 1.2 2.7 2.7s-1.2 2.7-2.7 2.7zm0-4.6c-1.1 0-1.9.9-1.9 1.9 0 1.1.9 1.9 1.9 1.9 1.1 0 1.9-.9 1.9-1.9 0-1-.9-1.9-1.9-1.9z"/></g></symbol><symbol id="pillow_3" viewBox="0 0 41.3 76.3" xml:space="preserve" xmlns="http://www.w3.org/2000/svg"><style/><path d="M22.9 46.9v-6.7c0-1.2-1-2.2-2.2-2.2-1.2 0-2.2 1-2.2 2.2v6.7c-4 1-7 4.7-7 9 0 5.1 4.2 9.3 9.3 9.3s9.3-4.2 9.3-9.3c-.2-4.4-3.2-8-7.2-9zm-2.3 13.8c-2.7 0-4.8-2.2-4.8-4.8 0-2.7 2.2-4.8 4.8-4.8 2.7 0 4.8 2.2 4.8 4.8.1 2.6-2.1 4.8-4.8 4.8zm0 0"/><path d="M31.4 39.4V11.8c0-6-4.8-10.8-10.8-10.8-6 0-10.8 4.8-10.8 10.8v27.7c-5.6 3.7-9 10-8.8 16.8.1 5.1 2.2 9.9 5.8 13.5 3.6 3.6 8.5 5.7 13.6 5.7h.3c5.2 0 10.1-2 13.8-5.7 3.8-3.7 5.9-8.7 5.9-14-.1-6.6-3.5-12.7-9-16.4zm-.1 27.3c-2.9 2.9-6.8 4.4-10.9 4.4-8.1-.1-14.8-6.8-15-14.9-.1-5.6 2.9-10.8 7.7-13.5.7-.4 1.1-1.1 1.1-1.9v-29c0-3.5 2.8-6.3 6.3-6.3s6.3 2.8 6.3 6.3v2.6h-2.9c-1.2 0-2.2 1-2.2 2.2 0 1.2 1 2.2 2.2 2.2H27v3.9h-2.9c-1.2 0-2.2 1-2.2 2.2 0 1.2 1 2.2 2.2 2.2H27V31h-2.9c-1.2 0-2.2 1-2.2 2.2 0 1.2 1 2.2 2.2 2.2H27v5.2c0 .8.4 1.5 1.1 1.9 4.8 2.7 7.7 7.8 7.7 13.2 0 4.3-1.6 8.1-4.5 11zm0 0"/></symbol><symbol id="rassrochka" viewBox="0 0 125.3 125.8" xml:space="preserve" xmlns="http://www.w3.org/2000/svg"><style>.axst1{fill:#005eff}</style><path d="M9.6 1.5h106.5v125.8H9.6z"/><path class="axst1" d="M57.9 84.9c.9-.9.9-2.5 0-3.4s-2.5-.9-3.4 0-.9 2.5 0 3.4c1 .9 2.5.9 3.4 0zm-11.3-57c0 14.6 11.8 26.4 26.4 26.4s26.4-11.8 26.4-26.4S87.6 1.5 73 1.5 46.6 13.3 46.6 27.9zm48 0c0 11.9-9.7 21.6-21.6 21.6s-21.6-9.7-21.6-21.6S61.1 6.3 73 6.3 94.6 16 94.6 27.9z"/><path class="axst1" d="M29.1 123.7c.9.9 2.4.9 3.4 0l11.6-11.5c2-2 2.6-4.9 1.7-7.4l2.5-2.4c1.3-1.3 3.1-2 5-2h31.9c5.7 0 11-2.2 15.1-6.1.2-.2-1.3 1.5 21.8-26 3.4-4 2.9-10.1-1.1-13.5s-10-2.9-13.5 1.1L93.3 70.4c-1.8-2.2-4.5-3.6-7.5-3.6H59.1c-3.8-1.6-7.9-2.4-12-2.4-11.6 0-21.7 5.3-27.1 15.3-2.3-.4-4.7.3-6.4 2L2.2 93.2c-.9.9-.9 2.4 0 3.4l26.9 27.1zm18-54.5c3.7 0 7.2.7 10.6 2.2.3.1.6.2 1 .2H86c2.6 0 4.8 2.1 4.8 4.8 0 2.6-2.2 4.8-4.8 4.8H66.3c-1.3 0-2.4 1.1-2.4 2.4S65 86 66.3 86h19.6c5.3 0 9.6-4.3 9.6-9.6 0-.4 0-.8-.1-1.3C109.1 61 111 59 111.1 58.9c1.7-2 4.7-2.3 6.8-.6 2 1.7 2.3 4.7.6 6.8L96.9 90.9c-3.1 3-7.3 4.7-11.6 4.7h-32c-3.1 0-6.1 1.2-8.3 3.4l-2 2-18.8-18.9c4.4-8.2 12.6-12.9 22.9-12.9zM17 85.1c.8-.8 2-.9 3-.3.4.3-.8-.8 20.8 20.7 1 1 .9 2.5 0 3.4l-9.9 9.8L7.3 94.9l9.7-9.8zm56.8-67.7h-5.1v11.4h-1.3c-.7 0-1.3.6-1.3 1.3h2.5v2.5h-2.5v1.3h2.5v3.8h1.3v-3.8h4.5v-1.3h-4.5v-2.5h4.4c1.1 0 3.6-.2 5.3-1.8 1.2-1.1 1.8-2.7 1.8-4.6s-.6-3.5-1.8-4.6c-2.2-2-5.7-1.7-5.8-1.7zm5 10c-1.8 1.7-4.9 1.4-5 1.4H70V18.7h3.9s3.1-.3 4.9 1.4c.9.9 1.4 2.1 1.4 3.7 0 1.5-.5 2.8-1.4 3.6z"/><path class="axst1" d="M70 38.2h-1.3c-.2 0-.5-.2-.5-.5v-3.3h-2.1c-.2 0-.5-.2-.5-.5v-1.3c0-.2.2-.5.5-.5h2.1v-1.6h-2.1c-.2 0-.5-.2-.5-.5 0-1 .8-1.7 1.7-1.7h.8V17.4c0-.2.2-.5.5-.5h5.1c.5 0 3.9-.2 6.1 1.9 1.3 1.2 2 2.9 2 4.9 0 2.1-.7 3.7-2 4.9-1.8 1.6-4.3 1.9-5.6 1.9h-3.9v1.6h4c.2 0 .5.2.5.5v1.3c0 .2-.2.5-.5.5h-4v3.4c.2.2 0 .4-.3.4zm-.8-.9h.4v-3.4c0-.2.2-.5.5-.5h4V33h-4c-.2 0-.5-.2-.5-.5V30c0-.2.2-.5.5-.5h4.3c1 0 3.3-.2 5-1.7 1.1-1 1.7-2.5 1.7-4.3s-.6-3.3-1.7-4.3c-2.1-1.9-5.4-1.6-5.4-1.6h-4.7v11c0 .2-.2.5-.5.5h-1.3c-.3 0-.5.1-.7.4h2c.2 0 .5.2.5.5v2.5c0 .2-.2.5-.5.5h-2.1v.4h2.1c.2 0 .5.2.5.5v3.4h-.1zm5.1-8H70c-.2 0-.5-.2-.5-.5V18.7c0-.2.2-.5.5-.5h3.9c.3 0 3.3-.2 5.2 1.5 1 .9 1.6 2.3 1.6 4s-.5 3.1-1.5 4c-1.6 1.4-3.9 1.6-4.9 1.6zm-3.8-.9h3.4c.3 0 3 .2 4.6-1.3.8-.8 1.3-1.9 1.3-3.3s-.4-2.6-1.3-3.3c-1.7-1.5-4.4-1.3-4.6-1.3h-3.4v9.2z"/></symbol><symbol viewBox="0 0 88.2 79" id="springs" xmlns="http://www.w3.org/2000/svg"><path class="ayst0" d="M-8.3-21.9H98.2v125.8H-8.3z"/><path d="M6.7 77.1c-1.4 0-2.7-.9-3.1-2.4-.4-1.7.6-3.5 2.3-3.9 23.6-6.2 28.9-9.9 30.1-11.3-2.2-1.6-10.5-3.5-15.2-4.5-10.5-2.3-18.1-4-18.2-9.3-.1-5.4 7.9-7.5 19.1-10.5 3.7-1 9.2-2.5 12.2-3.8-3-1.1-8.6-2.2-12.2-3-10.8-2.2-17.3-3.5-17.4-8.2-.2-5.1 3.6-10.9 32.6-15.3 1.7-.3 3.4.9 3.6 2.7.3 1.7-.9 3.4-2.7 3.6-20.3 3.1-25.5 6.6-26.8 8.1 2.4 1 8 2.1 11.8 2.9 10.9 2.2 18.7 3.8 18.9 9 .1 5.2-7.2 7.2-18.4 10.2-4 1.1-10.3 2.8-13.2 4.2 2.7 1.1 8.1 2.3 12 3.2C33.2 51.3 42 53.2 42.5 59c.4 5.1-5.4 10.2-35.1 18-.2.1-.5.1-.7.1zm4-57zm40.7 57c-1.4 0-2.7-.9-3.1-2.4-.4-1.7.6-3.5 2.3-3.9 23.6-6.2 28.9-9.9 30.1-11.3-2.2-1.7-10.5-3.5-15.1-4.6-10.5-2.3-18.1-4-18.2-9.3-.1-5.4 7.9-7.5 19.1-10.5 3.7-1 9.2-2.5 12.2-3.8-3-1.1-8.6-2.2-12.2-3-10.9-2-17.4-3.3-17.5-8.1-.2-5.1 3.6-10.9 32.6-15.3 1.7-.3 3.4.9 3.6 2.7.3 1.7-.9 3.4-2.7 3.6-20.3 3.1-25.5 6.6-26.8 8.1 2.4 1 8 2.1 11.8 2.9 10.9 2.2 18.7 3.8 18.9 9 .1 5.2-7.2 7.2-18.4 10.2-4 1.1-10.3 2.8-13.2 4.2 2.7 1.1 8.1 2.3 12 3.2 11.1 2.5 19.9 4.4 20.4 10.2.4 5.1-5.4 10.2-35.1 18-.2.1-.4.1-.7.1zm4-57z"/></symbol><symbol viewBox="0 0 354.3 305.5" id="subscribe" xmlns="http://www.w3.org/2000/svg"><path d="M353.5 66.1c-.3-1.9-1.6-3.5-3.3-4.3L221 3.6c-2.1-.9-4.5-.6-6.2.9l-37.7 33.4-37.7-33.4c-1.7-1.5-4.1-1.9-6.2-.9L4 61.8c-1.7.8-3 2.4-3.3 4.3-.3 1.9.3 3.8 1.7 5.1L43 110.5l-22.9 40.3c-1.6 2.7-.6 6.3 2.2 7.8l22.1 12.6v51.9c0 2 1.1 3.9 2.9 5l127 73.5c.9.5 1.9.8 2.9.8.7 0 1.4-.1 2-.4v.1l127.9-74c1.8-1 2.9-2.9 2.9-5v-51.9l22.1-12.6c2.7-1.6 3.7-5.1 2.1-7.8l-22.8-40.3 40.5-39.3c1.3-1.4 1.9-3.3 1.6-5.1zM209.6 227.6c1 0 2-.3 2.8-.8l85.9-49v42l-115.5 66.8v-90.3l22.2 29c1.1 1.5 2.8 2.3 4.6 2.3zm14.4-80.5l-41.1-23.8V55l108.9 54.8-67.8 37.3zM187.3 44.3l32.4-28.6 118.1 53.2-34.7 33.7-115.8-58.3zm114.6 72.9l19.4 34.3-110.2 62.9-25.4-33.1 116.2-64.1zm-89.7 36.3l-35.1 19.4-35.1-19.4 35.1-20.4 35.1 20.4zm-161-51L16.5 68.8l118.1-53.2L167 44.2 51.2 102.5zm4.6 75.3l85.9 49c.9.5 1.8.8 2.8.8 1.8 0 3.5-.8 4.6-2.3l22.2-29v90.3L55.8 219.8v-42zm112.7 3.5l-25.4 33.1-110.2-62.9 19.4-34.3 116.2 64.1zM62.4 109.7l108.9-54.8v68.3l-41.1 23.9-67.8-37.4z"/><path d="M3.5 5.5h351.8v299H3.5z"/></symbol><symbol id="vk" viewBox="0 0 122.4 122" xml:space="preserve" xmlns="http://www.w3.org/2000/svg"><style>.bast0{fill:#fff}</style><path class="bast0" d="M121.4 60.6c0-33.2-27-60.2-60.2-60.2S1 27.4 1 60.6s27 60.2 60.2 60.2 60.2-27 60.2-60.2zm-115 0c0-30.2 24.5-54.7 54.7-54.7s54.7 24.5 54.7 54.7-24.5 54.7-54.7 54.7S6.4 90.8 6.4 60.6z"/><path class="bast0" d="M87.8 74.1c-.1-.2-.1-.3-.2-.4-1-1.9-3-4.1-5.9-6.8l-.1-.1c-1.3-1.3-2.2-2.1-2.5-2.5-.6-.8-.8-1.7-.4-2.5.2-.6 1.2-2 2.8-4 .8-1.1 1.5-2 2-2.6 3.6-4.7 5.1-7.8 4.6-9.1l-.3-.4c-.1-.2-.4-.4-1-.5-.5-.2-1.2-.2-2-.1l-8.9.1h-.6c-.3.1-.4.1-.4.1l-.2.1-.1.1-.3.3c-.1.2-.2.3-.3.5-1 2.5-2.1 4.8-3.3 6.9-.8 1.3-1.5 2.4-2.1 3.3-.6.9-1.2 1.6-1.6 2.1-.4.4-.8.8-1.2 1.1-.4.3-.6.4-.8.3-.2 0-.4-.1-.5-.1-.3-.2-.5-.4-.7-.8-.2-.3-.3-.7-.4-1.2v-6.5c0-.9.1-1.6.1-2.2v-1.7c0-.6 0-1.1-.1-1.4-.1-.3-.2-.7-.3-1-.1-.3-.4-.6-.6-.7-.3-.2-.6-.3-1-.4-1.1-.2-2.5-.4-4.2-.4-3.8 0-6.3.2-7.4.7-.4.2-.8.5-1.2.9-.4.5-.4.7-.2.7 1.2.2 2.1.6 2.6 1.3l.2.4c.1.3.3.7.4 1.4.1.7.2 1.4.3 2.3.1 1.5.1 2.8 0 3.9s-.2 1.9-.3 2.5-.2 1.1-.4 1.5-.3.6-.4.7l-.2.2c-.3.1-.5.2-.8.2s-.6-.1-1-.4-.8-.7-1.3-1.2c-.4-.5-.9-1.2-1.5-2.1s-1.1-2-1.7-3.2l-.5-.9c-.3-.6-.7-1.4-1.3-2.5-.5-1.1-1-2.2-1.4-3.2-.2-.4-.4-.8-.7-1l-.1-.3c-.1-.1-.3-.2-.5-.3s-.5-.2-.7-.2l-8.5.1c-.9 0-1.5.2-1.8.6l-.1.2c-.1.1-.1.3-.1.5s.1.5.2.8c1.2 2.9 2.6 5.7 4 8.4 1.5 2.7 2.7 4.9 3.8 6.5s2.2 3.2 3.3 4.7 1.8 2.4 2.2 2.8.6.7.8.9l.8.7c.5.5 1.2 1.1 2.2 1.8 1 .7 2 1.4 3.2 2 1.2.7 2.5 1.2 4.1 1.6 1.5.4 3 .6 4.5.5h3.6c.7-.1 1.3-.3 1.6-.7l.1-.2c.1-.1.2-.3.2-.6.1-.3.1-.5.1-.8 0-.9 0-1.7.2-2.4s.3-1.2.5-1.6c.2-.4.4-.7.7-.9.2-.2.4-.4.5-.4.1-.1.2-.1.2-.1.5-.2 1.1 0 1.7.5.7.5 1.3 1.1 1.9 1.8.6.7 1.3 1.5 2.1 2.4s1.5 1.5 2.2 2l.6.4c.4.2.9.5 1.6.7s1.2.3 1.7.2l7.9-.1c.8 0 1.4-.1 1.8-.4.4-.3.7-.5.8-.8s.1-.7 0-1.1c.1-.5 0-.8 0-.9z"/></symbol><symbol id="youtube" viewBox="0 0 122.8 123" xml:space="preserve" xmlns="http://www.w3.org/2000/svg"><style>.bbst0{fill:#fff}</style><path class="bbst0" d="M121.4 61.7c0-33.2-27-60.2-60.2-60.2S1 28.5 1 61.7s27 60.2 60.2 60.2 60.2-27 60.2-60.2zm-114.9 0C6.5 31.5 31 7 61.3 7S116 31.5 116 61.7s-24.5 54.7-54.7 54.7S6.5 91.9 6.5 61.7z"/><path class="bbst0" d="M86.3 49c-.6-2.8-2.9-4.8-5.7-5.1-6.5-.7-13.1-.7-19.6-.7s-13.1 0-19.6.7c-2.7.3-5 2.4-5.7 5.1-.9 4-.9 8.3-.9 12.4s0 8.4.9 12.4c.6 2.8 2.9 4.8 5.7 5.1 6.5.7 13.1.7 19.6.7s13.1 0 19.6-.7c2.7-.3 5-2.4 5.7-5.1.9-4 .9-8.3.9-12.4s.1-8.4-.9-12.4zm-32 20.5V52.2c5.5 2.9 11.1 5.8 16.6 8.7-5.5 2.9-11.1 5.7-16.6 8.6z"/><path d="M34.8 43.1h52.7v37.1H34.8z"/></symbol></svg>